<svg width="287" height="183" viewBox="0 0 287 183" fill="none" xmlns="http://www.w3.org/2000/svg">
<path d="M137.324 182.198C136.343 182.115 135.798 182.043 134.017 181.759C133.665 181.703 133.129 181.628 132.826 181.593C132.422 181.545 132.289 181.49 132.33 181.383C132.395 181.215 132.374 181.207 131.244 180.966C130.775 180.866 130.126 180.702 129.804 180.602C129.481 180.501 128.857 180.311 128.417 180.178C127.977 180.046 127.412 179.846 127.161 179.733C126.91 179.621 126.65 179.53 126.583 179.53C126.413 179.53 125.08 178.996 124.956 178.879C124.9 178.826 124.786 178.783 124.701 178.783C124.617 178.783 123.772 178.445 122.822 178.032C121.773 177.576 121.026 177.308 120.917 177.35C120.797 177.396 120.737 177.365 120.737 177.256C120.737 177.166 120.485 176.942 120.177 176.758C116.432 174.522 113.851 172.542 111.103 169.8C110.058 168.757 109.17 167.903 109.13 167.903C108.919 167.903 106.835 165.156 105.528 163.156C104.05 160.894 102.344 157.282 101.346 154.303C101.065 153.464 100.783 152.522 100.197 150.463C100.113 150.17 99.8269 149.018 99.5607 147.903C99.2946 146.788 98.9849 145.492 98.8725 145.023C98.4083 143.084 97.9006 140.939 97.7991 140.49C97.7396 140.226 97.4756 139.098 97.2127 137.983C96.9498 136.868 96.6803 135.716 96.6139 135.423C96.5474 135.13 96.4083 134.578 96.3045 134.196C96.2007 133.815 96.0139 133.047 95.8892 132.49C95.7645 131.932 95.5945 131.236 95.5116 130.943C95.3754 130.461 94.9662 128.725 94.0538 124.756C93.417 121.987 93.2992 121.553 93.1339 121.367C92.9734 121.186 91.8196 121.179 68.3181 121.207C54.7619 121.223 42.1847 121.26 40.3689 121.29L37.0671 121.343L36.8752 121.876C36.6888 122.394 36.313 123.871 34.9878 129.29C34.6364 130.727 33.8675 133.871 33.2793 136.276C32.691 138.682 32.0819 141.154 31.9257 141.77C31.7694 142.386 31.5804 143.154 31.5055 143.476C30.9098 146.043 27.6719 158.704 27.4459 159.351C27.1794 160.113 26.7017 161.146 26.1174 162.222C25.3323 163.668 23.4465 165.68 21.9687 166.647C19.1099 168.517 15.2807 169.423 12.3638 168.919C10.7053 168.633 9.92352 168.42 9.98112 168.27C10.038 168.121 9.51019 167.796 9.21259 167.796C9.11627 167.796 8.91542 167.7 8.7663 167.583C8.61718 167.466 8.38432 167.37 8.24907 167.37C8.11382 167.37 7.97718 167.328 7.94539 167.276C7.82902 167.088 6.38454 166.294 6.27798 166.36C6.01206 166.524 3.74187 164.33 2.96267 163.155C0.731737 159.792 -0.00692922 156.001 0.842777 152.276C0.896324 152.042 0.992536 151.61 1.05664 151.316C1.12075 151.023 1.58528 149.151 2.08886 147.156C2.59243 145.162 3.04128 143.362 3.0864 143.156C3.13152 142.951 3.36715 142.015 3.61014 141.076C3.85312 140.138 4.14294 139.01 4.25419 138.57C5.00203 135.612 6.86411 128.175 7.36555 126.143C7.59723 125.204 7.90934 123.956 8.05942 123.37C8.2095 122.783 8.37184 122.111 8.42038 121.876C8.46891 121.642 8.60928 121.084 8.73227 120.637C8.85526 120.19 9.02454 119.518 9.10859 119.143C9.19264 118.769 9.52992 117.407 9.85803 116.116C10.1861 114.826 10.4955 113.578 10.5455 113.343C10.5955 113.108 11.0291 111.38 11.5091 109.503C12.5625 105.383 13.4596 101.794 15.0287 95.423C15.6788 92.783 16.3045 90.263 16.419 89.823C16.5334 89.383 16.8448 88.111 17.1107 86.9963C17.3766 85.8817 17.6397 84.8257 17.6953 84.6497C17.7508 84.4737 17.9135 83.8497 18.057 83.263C18.2004 82.6763 18.661 80.8523 19.0804 79.2097C19.4998 77.567 19.8832 76.031 19.9324 75.7963C19.9815 75.5617 20.2162 74.6257 20.454 73.7163C20.6917 72.807 21.0368 71.439 21.2207 70.6763C21.4046 69.9137 21.7229 68.5937 21.928 67.743C22.1331 66.8923 22.3936 65.8363 22.5069 65.3963C22.9292 63.7554 23.4896 61.4823 23.6246 60.863C23.7014 60.511 23.8099 60.055 23.8657 59.8497C23.9215 59.6443 24.1357 58.7803 24.3414 57.9297C24.5472 57.079 25.2028 54.463 25.7982 52.1163C26.3936 49.7697 26.9212 47.6577 26.9707 47.423C27.0202 47.1883 27.2831 46.1323 27.555 45.0763C27.8269 44.0203 28.1402 42.7723 28.2511 42.303C28.362 41.8337 28.8453 39.9137 29.3251 38.0363C29.8049 36.159 30.3329 34.071 30.4982 33.3963C30.9658 31.4885 31.8626 27.9821 31.9798 27.6039C32.038 27.4164 32.1581 26.999 32.2467 26.6763C33.4894 22.1551 34.6281 19.5493 36.7131 16.4558C38.371 13.9959 40.0684 12.0472 42.4182 9.90664C44.1868 8.29555 45.0827 7.60018 46.7225 6.5653C48.6866 5.32573 48.9715 5.16264 50.4849 4.41213C52.383 3.4708 53.9055 2.86141 56.1607 2.14002C56.8782 1.91058 58.4868 1.5316 60.2572 1.17501C65.4478 0.129465 72.3441 0.893092 77.4305 3.07667C78.4773 3.52605 81.4102 4.97885 81.8038 5.24285C81.9505 5.3412 82.6453 5.79859 83.3479 6.25907C87.1076 8.72349 89.8579 11.3434 92.6567 15.1266C93.4296 16.1713 94.7234 18.2379 94.9791 18.8363C95.0794 19.071 95.2727 19.503 95.4089 19.7963C96.2543 21.6183 96.4618 22.1065 96.8051 23.0833C97.0151 23.6808 97.2219 24.3414 97.2644 24.5512C97.307 24.761 97.3742 24.9851 97.4138 25.0493C97.4865 25.1669 97.7963 26.2301 98.2143 27.7963C99.2394 31.6373 100.042 34.717 100.201 35.423C100.274 35.7457 100.534 36.8497 100.779 37.8763C101.024 38.903 101.292 40.031 101.376 40.383C102.007 43.0405 102.909 46.7216 103.442 48.8097C103.622 49.5137 104.036 51.1937 104.362 52.543C104.689 53.8923 105.026 55.2843 105.112 55.6363C105.198 55.9883 105.414 56.8763 105.591 57.6097C105.768 58.343 106.011 59.303 106.13 59.743C106.249 60.183 106.411 60.831 106.489 61.183C106.568 61.535 106.755 62.303 106.905 62.8897C107.056 63.4763 107.373 64.7723 107.612 65.7697C107.85 66.767 108.139 67.943 108.255 68.383C108.563 69.5544 109.691 74.2887 110.061 75.9563C110.236 76.7483 110.769 78.9324 111.245 80.8097C112.513 85.8133 114.782 94.9258 115.295 97.0763C115.851 99.4099 117.913 107.806 118.123 108.596C118.305 109.277 119.518 114.265 120.575 118.676C120.772 119.498 121.086 120.794 121.272 121.556C121.459 122.319 121.652 123.135 121.702 123.37C121.752 123.604 122.037 124.756 122.336 125.93C122.635 127.103 123.048 128.735 123.255 129.556C123.462 130.378 123.722 131.386 123.834 131.796C124.026 132.502 124.522 134.543 125.533 138.783C126.464 142.693 127.129 144.938 127.805 146.463C127.922 146.727 128.111 147.159 128.225 147.423C128.339 147.687 128.478 147.975 128.534 148.063C128.589 148.151 128.707 148.367 128.794 148.543C128.882 148.719 128.995 148.935 129.046 149.023C129.097 149.111 129.201 149.316 129.278 149.479C129.483 149.918 131.095 151.755 131.925 152.497C133.625 154.015 135.39 154.898 138.017 155.545C138.381 155.635 139.212 155.689 140.204 155.688C141.687 155.686 141.892 155.661 143.016 155.339C145.145 154.729 146.708 153.859 148.471 152.304C150.397 150.605 151.774 148.833 153.35 146.025C154.41 144.136 155.266 141.546 156.097 137.716C156.307 136.748 156.594 135.452 156.735 134.836C156.971 133.806 157.494 131.405 158.302 127.636C158.478 126.815 158.71 125.759 158.819 125.29C158.927 124.82 159.092 124.052 159.185 123.583C159.277 123.114 159.447 122.346 159.561 121.876C159.676 121.407 159.895 120.423 160.048 119.69C160.315 118.408 160.603 117.041 161.43 113.13C161.64 112.132 161.858 111.1 161.913 110.836C161.968 110.572 162.112 109.9 162.234 109.343C162.355 108.786 162.577 107.754 162.726 107.05C163.247 104.594 163.385 103.95 163.61 102.943C163.735 102.386 163.905 101.558 163.989 101.103C164.072 100.649 164.211 99.9765 164.298 99.6098C164.385 99.2431 164.51 98.679 164.578 98.3563C164.69 97.8145 164.892 96.9313 165.271 95.3163C165.354 94.9643 165.642 93.6443 165.912 92.383C166.181 91.1217 166.47 89.8017 166.552 89.4497C166.635 89.0977 166.777 88.4257 166.868 87.9563C166.96 87.487 167.081 86.911 167.138 86.6763C167.194 86.4417 167.363 85.6737 167.512 84.9697C167.662 84.2657 167.879 83.2577 167.995 82.7297C168.111 82.2017 168.471 80.5217 168.796 78.9963C169.535 75.5194 170.057 73.1334 170.394 71.6806C170.539 71.0596 170.754 70.0756 170.873 69.4939C170.992 68.9123 171.183 68.0284 171.298 67.5297C171.724 65.6786 172.067 64.1373 172.308 62.9963C172.627 61.4839 173.068 59.4921 173.325 58.4097C173.436 57.9403 173.65 56.9563 173.801 56.223C173.951 55.4897 174.119 54.6977 174.173 54.463C174.228 54.2283 174.398 53.4363 174.55 52.703C175.036 50.3674 175.25 49.3544 175.351 48.9163C175.405 48.6817 175.67 47.4817 175.94 46.2497C176.21 45.0177 176.529 43.6017 176.648 43.103C176.768 42.6043 176.952 41.7883 177.057 41.2897C177.397 39.6849 177.891 37.4501 178.391 35.263C178.659 34.0897 178.969 32.7217 179.079 32.223C179.189 31.7243 179.359 30.9563 179.458 30.5163C179.712 29.3737 180.037 27.876 180.152 27.3163C180.207 27.0523 180.375 26.2603 180.526 25.5563C180.677 24.8523 180.844 24.0275 180.896 23.7233C180.948 23.4191 181.064 22.8671 181.153 22.4966C181.347 21.6939 182.315 17.1573 182.868 14.463C183.654 10.6335 184.336 8.88061 185.876 6.72808C189.339 1.88616 194.903 -0.336989 200.574 0.855331C201.994 1.15389 202.682 1.4004 204.204 2.15528C205.591 2.84307 205.948 3.0756 207.082 4.03027C208.25 5.01267 209.91 7.03208 209.91 7.4692C209.91 7.53234 210.034 7.83581 210.184 8.14355C211.185 10.1909 211.834 12.3908 212.787 16.9697C212.891 17.4683 213.175 18.7643 213.419 19.8497C213.663 20.935 213.958 22.279 214.076 22.8363C214.194 23.3937 214.359 24.1617 214.443 24.543C214.528 24.9243 214.768 26.0523 214.977 27.0497C215.317 28.6765 215.534 29.6275 216.215 32.4897C216.327 32.959 216.487 33.679 216.571 34.0897C216.655 34.5003 216.876 35.5563 217.062 36.4363C217.915 40.4854 218.32 42.4281 218.44 43.0497C218.617 43.9689 218.991 45.7022 219.238 46.7497C219.381 47.3547 219.643 48.5457 219.82 49.3963C219.997 50.247 220.266 51.519 220.418 52.223C220.57 52.927 220.832 54.151 221 54.943C221.168 55.735 221.452 57.055 221.632 57.8763C221.811 58.6977 222.034 59.7537 222.128 60.223C222.222 60.6923 222.365 61.3643 222.446 61.7163C222.527 62.0683 222.792 63.2923 223.034 64.4363C223.714 67.6418 224.072 69.248 224.628 71.583C224.815 72.3647 225.511 75.5922 225.663 76.383C225.923 77.7286 226.236 79.1821 226.663 81.023C226.841 81.7891 227.69 85.6641 228.264 88.3297C228.535 89.5851 228.725 90.4518 229.001 91.6897C229.249 92.798 229.728 95.0486 230.126 96.9697C230.278 97.703 230.444 98.471 230.496 98.6763C230.548 98.8817 230.718 99.6257 230.874 100.33C231.03 101.034 231.339 102.33 231.56 103.21C231.781 104.09 232.108 105.458 232.286 106.25C232.465 107.042 232.69 108.026 232.787 108.436C232.883 108.847 233.031 109.543 233.114 109.983C233.281 110.858 233.348 111.163 233.683 112.596C234.016 114.021 234.202 114.673 234.316 114.816C234.373 114.886 234.442 115.111 234.471 115.316C234.576 116.074 234.985 117.82 235.079 117.914C235.262 118.097 235.499 117.888 235.568 117.482C235.734 116.517 236.054 115.004 236.636 112.436C236.776 111.82 237.132 110.188 237.427 108.81C237.722 107.431 238.035 105.991 238.122 105.61C238.21 105.228 238.397 104.364 238.538 103.69C238.679 103.015 238.974 101.671 239.194 100.703C239.413 99.735 239.627 98.751 239.67 98.5163C239.713 98.2817 239.948 97.1777 240.193 96.063C240.439 94.9483 240.735 93.5803 240.852 93.023C240.97 92.4657 241.11 91.8177 241.164 91.583C241.367 90.7003 241.706 89.1105 241.801 88.5963C241.855 88.303 241.945 87.871 242 87.6363C242.135 87.0577 242.829 83.899 243.194 82.1964C243.358 81.4337 243.669 79.9937 243.886 78.9963C244.103 77.999 244.371 76.751 244.482 76.223C244.594 75.695 244.73 75.047 244.786 74.783C245.037 73.5997 245.328 72.2888 245.593 71.1563C245.75 70.4817 245.965 69.5217 246.07 69.023C246.176 68.5243 246.455 67.2283 246.692 66.143C246.929 65.0577 247.154 64.0017 247.192 63.7963C247.262 63.4234 247.524 62.1826 248.32 58.463C248.702 56.6814 248.83 56.0862 249.172 54.5163C249.23 54.2523 249.493 53.0043 249.756 51.743C250.02 50.4817 250.281 49.2577 250.336 49.023C250.39 48.7883 250.535 48.1163 250.658 47.5297C250.78 46.943 250.994 45.959 251.133 45.343C251.271 44.727 251.488 43.743 251.613 43.1563C251.998 41.3601 252.041 41.1599 252.25 40.223C252.362 39.7243 252.483 39.1483 252.521 38.943C252.559 38.7377 252.728 37.9217 252.898 37.1297C253.988 32.0338 254.211 31.0033 254.406 30.143C254.526 29.615 254.71 28.751 254.816 28.223C254.922 27.695 255.184 26.447 255.398 25.4497C255.612 24.4523 255.935 22.9403 256.116 22.0897C256.296 21.239 256.481 20.375 256.527 20.1697C256.745 19.1898 257.412 16.009 257.488 15.583C257.663 14.6038 258.238 12.0923 258.452 11.3697C259.449 8.00285 261.393 5.19603 264.097 3.21885C264.897 2.63421 266.644 1.66472 267.244 1.4724C267.361 1.43485 267.649 1.33085 267.884 1.24146C268.118 1.15208 268.863 0.950908 269.537 0.794322C272.257 0.163175 275.107 0.549733 277.908 1.92968C279.175 2.55421 279.165 2.54771 280.265 3.38739C283.61 5.94173 285.642 10.119 285.645 14.4498C285.646 15.8394 285.516 16.7977 284.988 19.3163C284.872 19.8737 284.709 20.6897 284.627 21.1297C284.545 21.5697 284.403 22.2657 284.312 22.6763C284.221 23.087 284.052 23.855 283.937 24.383C283.822 24.911 283.653 25.679 283.561 26.0897C283.468 26.5003 283.353 27.0523 283.303 27.3163C283.254 27.5803 283.117 28.2283 282.999 28.7563C282.881 29.2843 282.589 30.6523 282.35 31.7963C281.874 34.0705 281.803 34.3991 281.495 35.743C281.381 36.2417 281.207 37.0337 281.108 37.503C281.008 37.9723 280.884 38.5029 280.831 38.682C280.778 38.8611 280.668 39.3411 280.587 39.7487C280.416 40.6064 279.778 43.5019 279.403 45.1297C279.26 45.7457 278.925 47.3057 278.658 48.5963C278.391 49.887 278.127 51.135 278.072 51.3697C278.017 51.6043 277.846 52.3723 277.692 53.0763C277.538 53.7803 277.35 54.6443 277.273 54.9963C276.614 58.0074 276.326 59.3362 276.092 60.4363C275.943 61.1403 275.771 61.9323 275.711 62.1963C275.65 62.4603 275.456 63.3483 275.279 64.1697C275.102 64.991 274.919 65.831 274.873 66.0363C274.828 66.2417 274.663 66.9857 274.508 67.6897C274.354 68.3937 274.134 69.3777 274.02 69.8764C273.906 70.375 273.712 71.284 273.589 71.8964C273.466 72.5088 273.348 73.0372 273.327 73.0706C273.307 73.1041 273.213 73.4911 273.119 73.9305C273.024 74.37 272.877 75.0417 272.79 75.423C272.704 75.8043 272.558 76.4763 272.465 76.9163C272.372 77.3563 272.207 78.1003 272.098 78.5697C271.989 79.039 271.822 79.783 271.726 80.223C271.499 81.2629 271.151 82.8291 271.027 83.3697C270.738 84.6308 269.82 88.8772 269.748 89.2897C269.702 89.5537 269.569 90.1537 269.453 90.623C269.123 91.9604 268.895 92.9634 268.793 93.5223C268.741 93.8051 268.644 94.2523 268.577 94.5163C268.46 94.98 268.03 96.9446 267.831 97.9297C267.694 98.6077 267.386 100.015 266.875 102.303C266.167 105.474 266.108 105.737 265.96 106.41C265.609 108.008 265.478 108.614 265.268 109.61C265.011 110.831 264.903 111.333 264.751 112.01C264.691 112.274 264.57 112.826 264.483 113.236C264.395 113.647 264.145 114.751 263.929 115.69C263.712 116.628 263.497 117.612 263.451 117.876C263.404 118.14 263.263 118.788 263.136 119.316C263.009 119.844 262.84 120.612 262.76 121.023C262.681 121.434 262.491 122.322 262.338 122.996C262.186 123.671 261.893 124.967 261.689 125.876C261.484 126.786 261.199 128.034 261.056 128.65C260.913 129.266 260.678 130.322 260.535 130.996C260.392 131.671 260.152 132.775 260.003 133.45C259.853 134.124 259.654 135.036 259.561 135.476C259.467 135.916 259.3 136.684 259.189 137.183C259.078 137.682 258.886 138.57 258.763 139.156C258.5 140.41 258.083 142.308 257.788 143.583C257.562 144.562 257.483 144.914 257.213 146.143C256.521 149.297 255.729 152.547 255.38 153.663C254.212 157.399 252.289 160.609 249.681 163.177C248.469 164.37 247.843 164.884 246.713 165.615C244.284 167.186 241.272 168.309 238.284 168.757C237.375 168.894 234.61 168.892 233.474 168.754C231.983 168.574 230.391 168.208 230.391 168.047C230.391 167.968 230.325 167.903 230.246 167.903C230.166 167.903 229.722 167.732 229.259 167.523C228.796 167.315 228.297 167.094 228.151 167.032C228.004 166.971 227.74 166.857 227.564 166.779C227.388 166.701 227.13 166.605 226.992 166.566C226.482 166.421 223.956 164.908 223.054 164.206C221.935 163.337 219.603 161.035 219.027 160.231C217.55 158.172 216.372 155.726 215.631 153.183C215.401 152.391 214.71 149.513 214.607 148.916C214.534 148.494 213.647 144.155 213.429 143.156C213.337 142.734 213.105 141.605 212.475 138.516C212.236 137.343 211.992 136.167 211.934 135.903C211.876 135.639 211.658 134.535 211.451 133.45C211.243 132.364 211.025 131.26 210.967 130.996C210.909 130.732 210.408 128.236 209.853 125.45C209.299 122.663 208.626 119.327 208.359 118.036C208.092 116.746 207.782 115.186 207.67 114.57C207.558 113.954 207.416 113.21 207.354 112.916C207.293 112.623 207.172 112.002 207.085 111.536C206.998 111.07 206.824 110.23 206.699 109.669C206.574 109.109 206.449 108.53 206.423 108.383C206.396 108.236 206.238 107.468 206.07 106.676C205.903 105.884 205.64 104.636 205.486 103.903C205.333 103.17 205.116 102.138 205.004 101.61C204.893 101.082 204.506 99.1617 204.144 97.343C203.439 93.8034 202.797 90.6437 202.659 90.0363C202.612 89.831 202.399 88.775 202.186 87.6897C201.973 86.6043 201.777 85.6443 201.751 85.5564C201.725 85.4683 201.63 84.9883 201.539 84.4897C201.449 83.991 201.332 83.391 201.281 83.1563C201.229 82.9217 201.059 82.1057 200.904 81.343C200.748 80.5803 200.552 79.6443 200.467 79.263C200.254 78.306 199.628 75.3231 199.302 73.7163C199.153 72.983 198.861 71.567 198.652 70.5697C198.28 68.7925 198.171 68.2238 197.954 66.9508C197.895 66.6031 197.822 66.2791 197.792 66.2308C197.72 66.1135 197.458 66.1189 197.384 66.2393C197.321 66.3402 197.022 67.8265 196.22 72.0097C195.956 73.3883 195.717 74.6363 195.689 74.783C195.568 75.416 194.643 79.9825 194.505 80.631C194.327 81.4657 194.032 82.9714 193.215 87.2097C192.887 88.911 192.499 90.879 192.352 91.583C192.205 92.287 192.042 93.103 191.99 93.3963C191.939 93.6897 191.724 94.7654 191.513 95.787C191.302 96.8085 191.089 97.9125 191.039 98.2403C190.989 98.5681 190.849 99.3163 190.729 99.903C190.609 100.49 190.311 102.002 190.068 103.263C189.825 104.524 189.462 106.396 189.26 107.423C188.739 110.072 188.297 112.368 187.986 114.036C187.717 115.477 187.583 116.165 186.969 119.263C186.789 120.172 186.552 121.396 186.442 121.983C186.332 122.57 186.123 123.626 185.978 124.33C185.512 126.583 185.037 129.007 184.953 129.556C184.908 129.85 184.797 130.45 184.705 130.89C184.613 131.33 184.412 132.362 184.258 133.183C184.104 134.004 183.904 134.988 183.813 135.37C183.721 135.751 183.607 136.327 183.559 136.65C183.51 136.972 183.281 138.148 183.05 139.263C182.819 140.378 182.607 141.434 182.579 141.61C182.551 141.786 182.326 142.938 182.079 144.17C180.475 152.164 179.624 154.901 177.372 159.316C173.996 165.934 169.319 171.198 163.137 175.338C162.279 175.913 159.617 177.503 159.513 177.503C159.49 177.503 158.836 177.814 158.058 178.194C156.864 178.779 156.585 178.876 156.259 178.824C155.979 178.78 155.835 178.809 155.732 178.933C155.655 179.026 155.459 179.103 155.297 179.103C154.992 179.103 154.702 179.343 154.805 179.51C154.838 179.563 154.614 179.69 154.307 179.792C150.962 180.91 149.055 181.373 145.697 181.883C145.257 181.95 144.633 182.05 144.311 182.105C143.505 182.243 138.631 182.308 137.324 182.198ZM86.3491 94.4968C86.5108 94.3351 86.5024 94.2368 86.2345 93.1659C86.0753 92.53 85.8595 91.6977 85.7549 91.3163C85.6502 90.935 85.433 90.047 85.272 89.343C84.9581 87.9698 83.4716 81.9081 83.2971 81.2897C83.2391 81.0844 82.9718 79.9803 82.7031 78.8363C82.4345 77.6923 82.0754 76.2043 81.9053 75.5297C81.2934 73.1032 80.9357 71.6279 80.8448 71.1563C80.7939 70.8923 80.4165 69.3083 80.0061 67.6363C79.5956 65.9643 79.1365 64.0683 78.9858 63.423C78.8351 62.7777 78.6641 62.0817 78.6061 61.8763C78.5087 61.5318 77.3798 56.9269 76.5273 53.3963C76.3288 52.575 75.855 50.631 75.4742 49.0763C75.0934 47.5217 74.6097 45.5057 74.3992 44.5963C74.1888 43.687 73.9706 42.775 73.9141 42.5697C73.8577 42.3643 73.7399 41.8843 73.6524 41.503C72.8637 38.0702 71.8014 33.8256 71.5569 33.1297C71.1498 31.971 70.6945 31.2369 69.903 30.463C69.1859 29.7618 68.9148 29.583 67.7276 29.0291C66.405 28.412 64.1852 28.3289 62.7232 28.8418C61.1774 29.3841 59.9117 30.4877 59.1964 31.9169C58.6786 32.9513 58.3679 33.9449 57.7495 36.543C57.4843 37.6577 57.2211 38.7617 57.1649 38.9963C57.1087 39.231 56.9149 40.047 56.7343 40.8097C56.5537 41.5723 56.1955 43.0603 55.9382 44.1163C55.2963 46.7514 54.0299 51.9718 53.5317 54.0363C52.323 59.0457 51.6086 61.9699 51.5122 62.303C51.4528 62.5083 51.234 63.3963 51.026 64.2763C50.5963 66.0947 50.2488 67.5169 49.4884 70.5697C48.7033 73.7225 48.1573 75.9576 47.665 78.0363C47.441 78.9819 46.6281 82.362 45.7024 86.1964C45.3696 87.575 44.9778 89.207 44.8318 89.823C44.6858 90.439 44.3939 91.615 44.1833 92.4363C43.6911 94.355 43.6875 94.3742 43.7666 94.5806C43.8283 94.7414 45.4838 94.7516 65.0039 94.7131C84.4338 94.6749 86.1888 94.6572 86.3491 94.4968Z" fill="#1a73e8" stroke="#1a73e8"/>
<path d="M127.158 144.785C126.78 143.713 126.175 141.48 125.533 138.783C124.522 134.543 124.026 132.502 123.834 131.796C123.722 131.386 123.462 130.378 123.255 129.556C123.048 128.735 122.635 127.103 122.336 125.93C122.037 124.756 121.752 123.604 121.702 123.37C121.652 123.135 121.459 122.319 121.272 121.556C121.086 120.794 120.772 119.498 120.575 118.676C119.518 114.265 118.305 109.277 118.123 108.596C117.913 107.806 115.851 99.4099 115.295 97.0763C114.782 94.9258 112.513 85.8133 111.245 80.8097C110.769 78.9323 110.236 76.7483 110.061 75.9563C109.691 74.2887 108.563 69.5544 108.255 68.383C108.139 67.943 107.85 66.767 107.612 65.7697C107.373 64.7723 107.056 63.4763 106.905 62.8897C106.755 62.303 106.568 61.535 106.489 61.183C106.411 60.831 106.249 60.183 106.13 59.743C106.011 59.303 105.768 58.343 105.591 57.6097C105.414 56.8763 105.198 55.9883 105.112 55.6363C105.026 55.2843 104.689 53.8923 104.362 52.543C104.036 51.1937 103.622 49.5137 103.442 48.8097C102.909 46.7216 102.006 43.0405 101.376 40.383C101.292 40.031 101.024 38.903 100.779 37.8763C100.534 36.8497 100.274 35.7457 100.201 35.423C100.042 34.717 99.2393 31.6373 98.2143 27.7963C97.7962 26.23 97.4865 25.1669 97.4137 25.0492C97.3742 24.9851 97.3069 24.761 97.2644 24.5512C97.0773 23.6281 96.2367 21.4886 95.4434 19.9168C95.2695 19.5723 95.1478 19.2702 95.173 19.245C95.2559 19.1621 96.2886 21.2766 96.8257 22.6287C97.6432 24.6867 97.9574 25.7735 99.2922 31.1585C99.6482 32.5946 100.01 34.0346 100.097 34.3585C100.184 34.6823 100.298 35.1623 100.352 35.4251C100.406 35.688 100.715 36.935 101.041 38.1963C101.366 39.4577 101.655 40.5857 101.684 40.703C101.712 40.8203 101.905 41.6123 102.112 42.463C102.319 43.3137 102.807 45.3297 103.198 46.943C104.503 52.3404 106.016 58.5125 106.125 58.8897C106.225 59.2364 106.651 60.9642 107.572 64.7563C107.778 65.607 108.112 66.951 108.314 67.743C108.516 68.535 108.901 70.119 109.17 71.263C110.14 75.3866 112.695 85.8608 113.112 87.423C113.343 88.286 114.56 93.1127 114.766 93.983C115.526 97.1871 118.013 107.37 118.388 108.81C118.502 109.25 118.82 110.546 119.093 111.69C119.367 112.834 119.893 114.994 120.263 116.49C120.633 117.986 121.057 119.714 121.204 120.33C121.511 121.609 122.44 125.426 123.152 128.33C123.419 129.415 123.721 130.615 123.825 130.996C123.928 131.378 124.066 131.93 124.13 132.223C124.195 132.516 124.583 134.124 124.993 135.796C126.835 143.31 127.088 144.297 127.399 145.173C127.491 145.431 127.548 145.661 127.527 145.682C127.506 145.703 127.34 145.3 127.158 144.785Z" fill="#174ea6" stroke="#174ea6"/>
<path d="M229.431 167.89C229.049 167.773 228.534 167.583 228.285 167.47C228.036 167.356 227.806 167.263 227.774 167.263C227.742 167.263 227.393 167.114 226.999 166.932C226.04 166.488 224.342 165.441 223.304 164.653C222.444 164 219.937 161.584 219.937 161.408C219.937 161.355 220.429 161.801 221.031 162.399C221.632 162.997 222.542 163.811 223.054 164.208C223.958 164.909 226.484 166.422 226.992 166.566C227.131 166.605 227.388 166.701 227.564 166.779C227.74 166.857 228.004 166.971 228.151 167.032C228.297 167.094 228.796 167.315 229.259 167.523C229.722 167.732 230.166 167.903 230.246 167.903C230.325 167.903 230.391 167.951 230.391 168.01C230.391 168.157 230.231 168.137 229.431 167.89Z" fill="#174ea6" stroke="#174ea6"/>
<path d="M131.51 181.347C131.364 181.3 130.764 181.151 130.177 181.016C128.735 180.684 125.957 179.771 124.524 179.159C122.317 178.216 120.589 177.29 121.036 177.29C121.083 177.29 121.887 177.625 122.823 178.034C123.758 178.444 124.598 178.78 124.689 178.781C124.78 178.782 124.9 178.826 124.956 178.879C125.08 178.996 126.413 179.53 126.583 179.53C126.65 179.53 126.91 179.621 127.161 179.733C127.412 179.846 127.977 180.046 128.417 180.178C128.857 180.311 129.481 180.501 129.804 180.602C130.126 180.702 130.774 180.866 131.244 180.966C132.335 181.199 132.364 181.209 132.364 181.34C132.364 181.467 131.897 181.471 131.51 181.347Z" fill="#174ea6" stroke="#174ea6"/>
<path d="M154.764 179.444C154.764 179.27 155.029 179.103 155.306 179.103C155.463 179.103 155.651 179.031 155.724 178.943C155.867 178.771 156.364 178.721 156.364 178.878C156.364 178.971 155.082 179.53 154.87 179.53C154.811 179.53 154.764 179.491 154.764 179.444Z" fill="#174ea6" stroke="#174ea6"/>
<path d="M8.94295 167.974C8.49879 167.788 8.01879 167.563 7.87629 167.473C7.73378 167.383 7.43501 167.215 7.21239 167.1C6.66989 166.818 6.21378 166.446 6.30231 166.356C6.37474 166.283 7.8381 167.103 7.94541 167.276C7.97719 167.328 8.11383 167.37 8.24909 167.37C8.38434 167.37 8.61719 167.466 8.76631 167.583C8.91543 167.7 9.11629 167.796 9.21261 167.796C9.45218 167.796 10.0172 168.098 10.0172 168.226C10.0172 168.386 9.81837 168.339 8.94295 167.974Z" fill="#174ea6" stroke="#174ea6"/>
<path d="M119.724 176.753C119.255 176.467 118.799 176.198 118.711 176.156C118.493 176.053 116.382 174.648 116.022 174.368C115.864 174.244 115.51 173.975 115.236 173.77C114.473 173.199 113.213 172.133 112.163 171.171C111.1 170.198 109.063 168.022 109.141 167.943C109.169 167.915 110.05 168.748 111.098 169.795C113.852 172.542 116.43 174.52 120.177 176.758C120.485 176.942 120.737 177.136 120.737 177.191C120.737 177.35 120.623 177.301 119.724 176.753Z" fill="#174ea6" stroke="#174ea6"/>
<path d="M234.125 114.34C234.06 114.085 233.983 113.808 233.954 113.724C233.909 113.589 233.648 112.484 233.363 111.21C233.31 110.975 233.198 110.423 233.114 109.983C233.03 109.543 232.883 108.847 232.786 108.436C232.69 108.026 232.465 107.042 232.286 106.25C232.108 105.458 231.78 104.09 231.56 103.21C231.339 102.33 231.03 101.034 230.874 100.33C230.718 99.6257 230.548 98.8817 230.496 98.6763C230.444 98.471 230.278 97.703 230.126 96.9697C229.728 95.0486 229.249 92.7979 229.001 91.6897C228.725 90.4518 228.535 89.5851 228.264 88.3297C227.69 85.6641 226.841 81.7891 226.663 81.023C226.236 79.182 225.923 77.7286 225.663 76.383C225.511 75.5922 224.815 72.3647 224.628 71.583C224.072 69.248 223.713 67.6418 223.034 64.4363C222.792 63.2923 222.527 62.0683 222.446 61.7163C222.365 61.3643 222.222 60.6923 222.128 60.223C222.034 59.7537 221.811 58.6977 221.632 57.8763C221.452 57.055 221.168 55.735 221 54.943C220.832 54.151 220.57 52.927 220.418 52.223C220.266 51.519 219.997 50.247 219.82 49.3963C219.643 48.5457 219.381 47.3547 219.238 46.7497C218.991 45.7021 218.617 43.9689 218.44 43.0497C218.32 42.4281 217.915 40.4854 217.061 36.4363C216.876 35.5563 216.655 34.5003 216.571 34.0897C216.487 33.679 216.327 32.959 216.215 32.4897C215.534 29.6275 215.317 28.6764 214.976 27.0497C214.768 26.0523 214.528 24.9243 214.443 24.543C214.359 24.1617 214.194 23.3937 214.076 22.8363C213.958 22.279 213.663 20.935 213.419 19.8497C213.175 18.7643 212.891 17.4683 212.787 16.9697C211.832 12.3829 211.186 10.1928 210.179 8.13244C209.702 7.15644 209.944 7.29457 210.458 8.29169C211.489 10.2907 211.875 11.5668 212.844 16.1697C212.992 16.8737 213.207 17.8577 213.32 18.3563C213.434 18.855 213.602 19.623 213.693 20.063C213.784 20.503 214.077 21.823 214.344 22.9963C214.611 24.1697 214.871 25.3457 214.922 25.6097C214.973 25.8737 215.161 26.7137 215.34 27.4763C215.518 28.239 215.721 29.127 215.79 29.4497C215.859 29.7723 215.982 30.3003 216.063 30.623C216.199 31.1588 217.121 35.4352 217.236 36.063C217.34 36.6266 217.714 38.3607 218.34 41.183C218.698 42.7963 219.081 44.5483 219.191 45.0763C219.301 45.6043 219.564 46.8523 219.775 47.8497C219.986 48.847 220.255 50.143 220.373 50.7297C220.49 51.3163 220.679 52.2043 220.792 52.703C221.179 54.4147 221.889 57.6631 221.934 57.9297C221.959 58.0763 222.123 58.8683 222.3 59.6897C223.031 63.0954 223.152 63.656 223.245 64.063C223.299 64.2977 223.444 64.9697 223.567 65.5563C223.69 66.143 223.905 67.127 224.044 67.743C224.182 68.359 224.516 69.871 224.786 71.103C225.055 72.335 225.368 73.751 225.482 74.2497C225.595 74.7483 225.764 75.5403 225.858 76.0097C226.015 76.7957 226.336 78.2725 226.878 80.703C227.495 83.4698 227.97 85.6624 228.044 86.0897C228.122 86.5393 228.605 88.789 229.12 91.103C229.245 91.6603 229.386 92.3452 229.436 92.625C229.516 93.0827 230.022 95.3986 230.281 96.4897C230.336 96.7243 230.602 97.9003 230.87 99.103C231.139 100.306 231.45 101.674 231.56 102.143C231.671 102.612 231.859 103.452 231.978 104.01C232.581 106.827 233.291 110.027 233.813 112.276C234.316 114.444 234.364 114.685 234.302 114.747C234.27 114.779 234.191 114.596 234.125 114.34Z" fill="#174ea6" stroke="#174ea6"/>
<path d="M141.217 132.38C140.326 132.195 139.203 131.55 138.452 130.793C137.06 129.39 136.593 128.206 135.039 122.143C134.867 121.468 134.596 120.412 134.437 119.796C134.279 119.18 134.089 118.412 134.014 118.09C133.94 117.767 133.031 114.143 131.994 110.036C130.146 102.721 129.606 100.549 129.313 99.263C129.233 98.911 129.068 98.239 128.947 97.7697C128.826 97.3003 128.681 96.7064 128.626 96.4499C128.571 96.1934 127.808 93.0974 126.93 89.5699C125.15 82.4127 122.827 73.0168 122.073 69.9297C121.801 68.815 120.931 65.287 120.14 62.0897C119.35 58.8923 118.606 55.8683 118.487 55.3697C118.369 54.871 118.179 54.103 118.065 53.663C117.866 52.8943 116.148 45.8785 115.727 44.1163C115.418 42.8231 115.273 42.2378 114.077 37.4497C113.469 35.015 112.795 32.279 112.579 31.3697C111.767 27.9521 111.234 25.7445 111.035 24.9697C110.469 22.777 109.533 18.8366 109.21 17.2897C108.782 15.2408 108.83 12.757 109.328 11.1563C109.913 9.27603 110.563 7.84904 111.356 6.70131C113.778 3.19635 117.865 0.847868 122.017 0.575015C123.295 0.491068 124.544 0.672616 126.915 1.28744C127.62 1.47016 129.867 2.67752 130.772 3.35966C131.948 4.24638 133.331 5.70217 134.112 6.87678C134.865 8.00777 135.902 10.1675 135.938 10.6763C135.952 10.8817 136.038 11.2417 136.129 11.4763C136.311 11.9492 136.893 14.3028 137.316 16.2763C138.168 20.256 138.574 22.1398 138.766 22.9963C139.06 24.3103 139.246 25.1634 139.498 26.3563C139.968 28.5733 140.766 32.2152 141.112 33.7163C141.297 34.5187 142.314 39.1751 142.614 40.5963C142.677 40.8897 142.817 41.5377 142.926 42.0363C143.035 42.535 143.225 43.423 143.348 44.0097C143.472 44.5963 143.643 45.4003 143.728 45.7963C143.814 46.1924 143.952 46.8403 144.036 47.2363C144.309 48.5291 144.64 50.0708 144.854 51.0497C144.97 51.5777 145.132 52.3217 145.215 52.703C145.371 53.4267 145.634 54.6126 146.017 56.3297C146.141 56.887 146.311 57.655 146.394 58.0363C146.478 58.4177 146.641 59.1617 146.757 59.6897C146.874 60.2177 147.067 61.1057 147.186 61.663C147.376 62.544 148.25 66.5154 148.748 68.7563C149.085 70.2688 149.313 71.3311 149.424 71.903C149.487 72.2257 149.632 72.9217 149.747 73.4497C149.861 73.9777 150.078 74.9857 150.228 75.6897C150.378 76.3937 150.545 77.1617 150.6 77.3963C150.655 77.631 150.798 78.279 150.919 78.8363C151.201 80.1401 151.859 83.1222 152.002 83.743C152.063 84.007 152.153 84.415 152.203 84.6497C152.253 84.8843 152.367 85.3883 152.456 85.7697C152.545 86.151 152.721 86.967 152.847 87.583C152.974 88.199 153.164 89.087 153.271 89.5563C153.377 90.0257 153.569 90.8897 153.698 91.4763C154.133 93.4626 154.582 95.4615 155.186 98.0897C155.293 98.559 155.48 99.399 155.6 99.9563C155.78 100.786 156.82 105.353 157.217 107.05C157.272 107.284 157.37 107.752 157.434 108.088C157.499 108.424 157.59 108.723 157.637 108.752C157.684 108.781 157.784 109.495 157.859 110.339C158.197 114.132 157.296 118.689 155.545 122.036C153.315 126.299 150.228 129.449 146.497 131.267C144.532 132.224 142.513 132.65 141.217 132.38Z" fill="#1a73e8" stroke="#1a73e8"/>
<path d="M156.431 103.61C156.096 102.158 155.722 100.514 155.601 99.9564C155.48 99.399 155.293 98.559 155.186 98.0897C154.582 95.4615 154.133 93.4626 153.698 91.4764C153.569 90.8897 153.377 90.0257 153.271 89.5564C153.164 89.087 152.974 88.199 152.847 87.583C152.721 86.967 152.545 86.151 152.456 85.7697C152.367 85.3884 152.25 84.8724 152.196 84.623C152.142 84.3736 152.051 83.9657 151.995 83.7164C151.835 83.0099 151.162 79.9601 150.919 78.8364C150.798 78.279 150.655 77.631 150.6 77.3964C150.545 77.1617 150.378 76.3937 150.228 75.6897C150.078 74.9857 149.861 73.9777 149.747 73.4497C149.632 72.9217 149.487 72.2257 149.424 71.903C149.313 71.3311 149.085 70.2688 148.748 68.7564C148.25 66.5154 147.376 62.544 147.186 61.663C147.067 61.1057 146.874 60.2177 146.757 59.6897C146.641 59.1617 146.478 58.4177 146.394 58.0364C146.311 57.655 146.141 56.887 146.017 56.3297C145.634 54.6126 145.372 53.4268 145.215 52.703C145.132 52.3217 144.97 51.5777 144.854 51.0497C144.654 50.1342 144.375 48.8378 144.029 47.2097C143.942 46.799 143.804 46.151 143.722 45.7697C143.64 45.3884 143.472 44.5964 143.348 44.0097C143.225 43.423 143.035 42.535 142.926 42.0364C142.817 41.5377 142.677 40.8897 142.615 40.5964C142.314 39.1751 141.297 34.5187 141.112 33.7164C140.766 32.2152 139.968 28.5733 139.498 26.3564C139.246 25.1634 139.06 24.3103 138.766 22.9964C138.574 22.1398 138.168 20.256 137.316 16.2764C137.165 15.5724 136.874 14.3004 136.668 13.4497C136.345 12.117 136.207 11.652 135.914 10.9164C135.885 10.843 135.91 10.783 135.969 10.783C136.151 10.783 136.656 12.6561 137.478 16.383C137.659 17.2044 137.955 18.5244 138.136 19.3164C138.523 21.0036 138.66 21.618 139.397 24.9697C140.04 27.8954 140.369 29.4125 140.68 30.8897C140.804 31.4764 140.95 32.1484 141.005 32.383C141.142 32.9688 141.726 35.5991 141.963 36.703C142.209 37.8434 142.759 40.3134 143.033 41.503C143.147 42.0017 143.34 42.8897 143.461 43.4764C143.582 44.063 143.775 44.975 143.892 45.503C144.18 46.8154 144.483 48.2193 144.847 49.9297C145.015 50.7217 145.228 51.7057 145.321 52.1164C145.413 52.527 145.532 53.079 145.586 53.343C145.715 53.9704 146.311 56.689 146.441 57.2364C146.497 57.471 146.642 58.143 146.764 58.7297C146.886 59.3164 147.031 59.9884 147.086 60.223C147.292 61.1092 147.86 63.6714 148.042 64.543C148.146 65.0417 148.384 66.1217 148.569 66.943C148.755 67.7644 149.002 68.8684 149.119 69.3964C149.236 69.9244 149.375 70.5484 149.429 70.783C149.483 71.0177 149.7 72.0497 149.912 73.0764C150.124 74.103 150.39 75.351 150.503 75.8497C150.616 76.3484 150.825 77.333 150.968 78.0377C151.111 78.7425 151.325 79.7265 151.444 80.2244C151.563 80.7223 151.764 81.6097 151.892 82.1964C152.019 82.783 152.213 83.671 152.323 84.1697C152.433 84.6684 152.569 85.2924 152.625 85.5564C152.681 85.8204 152.826 86.4924 152.946 87.0497C153.066 87.607 153.286 88.639 153.433 89.343C153.581 90.047 153.77 90.911 153.854 91.263C153.938 91.615 154.178 92.6856 154.387 93.6421C154.597 94.5986 154.814 95.5826 154.871 95.8288C155.543 98.7444 156.201 101.782 156.367 102.73C156.413 102.994 156.572 103.714 156.719 104.33C157.037 105.656 157.151 106.25 157.088 106.25C157.063 106.25 156.767 105.062 156.431 103.61Z" fill="#174ea6" stroke="#174ea6"/>
</svg>
